<svg width="21" height="21" viewBox="0 0 21 21" fill="none" xmlns="http://www.w3.org/2000/svg">
<path d="M1 10.5C1 6.022 1 3.782 2.391 2.391C3.782 1 6.021 1 10.5 1C14.978 1 17.218 1 18.609 2.391C20 3.782 20 6.021 20 10.5C20 14.978 20 17.218 18.609 18.609C17.218 20 14.979 20 10.5 20C6.022 20 3.782 20 2.391 18.609C1 17.218 1 14.979 1 10.5Z" stroke="#353131" stroke-width="1.5" stroke-linecap="round" stroke-linejoin="round"/>
<path d="M15.427 6.526H12.482C11.9805 6.52599 11.4993 6.72424 11.1434 7.07754C10.7875 7.43084 10.5857 7.91052 10.582 8.412L10.496 19.927M8.58197 12.502H13.385" stroke="#353131" stroke-width="1.5" stroke-linecap="round" stroke-linejoin="round"/>
</svg>
