<svg width="150" height="180" viewBox="0 0 150 180" fill="none" xmlns="http://www.w3.org/2000/svg">
<path d="M146.391 157.118C148.062 157.099 149.426 158.477 149.426 160.148V160.148C149.426 161.819 148.062 163.197 146.391 163.178L1.31356 161.477C0.585616 161.468 -6.19888e-06 160.876 -6.19888e-06 160.148V160.148C-6.19888e-06 159.42 0.585625 158.827 1.31357 158.819L146.391 157.118Z" fill="#222222"/>
<mask id="mask0_1_89" style="mask-type:alpha" maskUnits="userSpaceOnUse" x="0" y="157" width="150" height="7">
<path d="M146.391 157.118C148.062 157.099 149.426 158.477 149.426 160.148V160.148C149.426 161.819 148.062 163.197 146.391 163.178L1.31356 161.477C0.585616 161.468 -6.19888e-06 160.876 -6.19888e-06 160.148V160.148C-6.19888e-06 159.42 0.585625 158.827 1.31357 158.819L146.391 157.118Z" fill="#D0D0D0"/>
</mask>
<g mask="url(#mask0_1_89)">
<rect width="15.554" height="1.97723" transform="matrix(-0.55931 0.828959 -0.896555 -0.442932 146.356 154.455)" fill="#575757"/>
<rect width="15.554" height="1.97723" transform="matrix(-0.55931 0.828959 -0.896556 -0.442931 113.605 154.455)" fill="#575757"/>
<rect width="15.554" height="1.97723" transform="matrix(-0.55931 0.828959 -0.896556 -0.442931 129.981 154.455)" fill="#575757"/>
<rect width="15.554" height="1.97723" transform="matrix(-0.55931 0.828959 -0.896556 -0.442931 97.2296 154.455)" fill="#575757"/>
<rect width="15.554" height="1.97723" transform="matrix(-0.55931 0.828959 -0.896556 -0.442931 138.168 154.455)" fill="#575757"/>
<rect width="15.554" height="1.97723" transform="matrix(-0.55931 0.828959 -0.896556 -0.442931 105.417 154.455)" fill="#575757"/>
<rect width="15.554" height="1.97723" transform="matrix(-0.55931 0.828958 -0.896556 -0.442931 121.793 154.455)" fill="#575757"/>
<rect width="15.554" height="1.97723" transform="matrix(-0.55931 0.828958 -0.896556 -0.442931 89.0419 154.455)" fill="#575757"/>
<rect width="15.554" height="1.97723" transform="matrix(-0.55931 0.828959 -0.896556 -0.442931 142.262 154.455)" fill="#575757"/>
<rect width="15.554" height="1.97723" transform="matrix(-0.55931 0.828958 -0.896556 -0.442931 109.511 154.455)" fill="#575757"/>
<rect width="15.554" height="1.97723" transform="matrix(-0.55931 0.828959 -0.896556 -0.442931 125.887 154.455)" fill="#575757"/>
<rect width="15.554" height="1.97723" transform="matrix(-0.55931 0.828958 -0.896556 -0.442931 93.1357 154.455)" fill="#575757"/>
<rect width="15.554" height="1.97723" transform="matrix(-0.55931 0.828959 -0.896556 -0.442931 134.074 154.455)" fill="#575757"/>
<rect width="15.554" height="1.97723" transform="matrix(-0.55931 0.828959 -0.896556 -0.442931 101.323 154.455)" fill="#575757"/>
<rect width="15.554" height="1.97723" transform="matrix(-0.55931 0.828959 -0.896556 -0.442931 117.699 154.455)" fill="#575757"/>
<rect width="15.554" height="1.97723" transform="matrix(-0.55931 0.828958 -0.896556 -0.442931 84.9479 154.455)" fill="#575757"/>
<rect width="15.554" height="1.97723" transform="matrix(-0.55931 -0.828959 -0.896556 0.442931 146.356 166.473)" fill="#898989"/>
<rect width="15.554" height="1.97723" transform="matrix(-0.55931 -0.828959 -0.896556 0.442931 113.605 166.473)" fill="#898989"/>
<rect width="15.554" height="1.97724" transform="matrix(-0.559311 -0.828958 -0.896556 0.442931 129.981 166.473)" fill="#898989"/>
<rect width="15.554" height="1.97723" transform="matrix(-0.55931 -0.828959 -0.896556 0.442931 97.2296 166.473)" fill="#898989"/>
<rect width="15.554" height="1.97723" transform="matrix(-0.55931 -0.828958 -0.896556 0.442931 138.168 166.473)" fill="#898989"/>
<rect width="15.554" height="1.97723" transform="matrix(-0.55931 -0.828959 -0.896555 0.442932 105.417 166.473)" fill="#898989"/>
<rect width="15.554" height="1.97723" transform="matrix(-0.55931 -0.828958 -0.896556 0.442931 121.793 166.473)" fill="#898989"/>
<rect width="15.554" height="1.97723" transform="matrix(-0.55931 -0.828958 -0.896556 0.442931 89.0419 166.473)" fill="#898989"/>
<rect width="15.554" height="1.97724" transform="matrix(-0.55931 -0.828958 -0.896556 0.442931 142.262 166.473)" fill="#898989"/>
<rect width="15.554" height="1.97723" transform="matrix(-0.55931 -0.828958 -0.896556 0.442931 109.511 166.473)" fill="#898989"/>
<rect width="15.554" height="1.97723" transform="matrix(-0.55931 -0.828958 -0.896556 0.442931 125.887 166.473)" fill="#898989"/>
<rect width="15.554" height="1.97723" transform="matrix(-0.55931 -0.828959 -0.896555 0.442932 93.1357 166.473)" fill="#898989"/>
<rect width="15.554" height="1.97723" transform="matrix(-0.55931 -0.828959 -0.896556 0.442931 134.075 166.473)" fill="#898989"/>
<rect width="15.554" height="1.97723" transform="matrix(-0.55931 -0.828958 -0.896556 0.442931 101.323 166.473)" fill="#898989"/>
<rect width="15.554" height="1.97723" transform="matrix(-0.55931 -0.828958 -0.896556 0.442931 117.699 166.473)" fill="#898989"/>
<rect width="15.554" height="1.97723" transform="matrix(-0.55931 -0.828959 -0.896556 0.442931 84.948 166.473)" fill="#898989"/>
</g>
<path d="M146.97 173.702C148.637 173.799 149.905 175.239 149.788 176.906L149.783 176.972C149.666 178.639 148.211 179.889 146.546 179.753L1.94245 167.958C1.21609 167.899 0.672733 167.267 0.723687 166.54V166.54C0.77464 165.813 1.40094 165.262 2.1285 165.304L146.97 173.702Z" fill="#222222"/>
<mask id="mask1_1_89" style="mask-type:alpha" maskUnits="userSpaceOnUse" x="0" y="165" width="150" height="15">
<path d="M146.97 173.7C148.637 173.797 149.905 175.237 149.788 176.904L149.783 176.972C149.666 178.639 148.21 179.889 146.545 179.753L1.94304 167.96C1.2164 167.901 0.672846 167.268 0.72383 166.541V166.541C0.774814 165.813 1.40137 165.262 2.1292 165.305L146.97 173.7Z" fill="#D0D0D0"/>
</mask>
<g mask="url(#mask1_1_89)">
<rect width="15.5526" height="1.97651" transform="matrix(-0.615973 0.7881 -0.863357 -0.504149 147.121 171.049)" fill="#575757"/>
<rect width="15.5526" height="1.97651" transform="matrix(-0.615973 0.7881 -0.863357 -0.504149 114.449 168.768)" fill="#575757"/>
<rect width="15.5526" height="1.9765" transform="matrix(-0.615974 0.7881 -0.863357 -0.504149 130.785 169.909)" fill="#575757"/>
<rect width="15.5526" height="1.97651" transform="matrix(-0.615973 0.7881 -0.863357 -0.504149 98.1138 167.628)" fill="#575757"/>
<rect width="15.5526" height="1.97651" transform="matrix(-0.615973 0.7881 -0.863357 -0.504149 138.953 170.479)" fill="#575757"/>
<rect width="15.5526" height="1.97651" transform="matrix(-0.615973 0.7881 -0.863357 -0.504149 106.282 168.198)" fill="#575757"/>
<rect width="15.5526" height="1.97651" transform="matrix(-0.615973 0.7881 -0.863357 -0.504149 122.617 169.338)" fill="#575757"/>
<rect width="15.5526" height="1.9765" transform="matrix(-0.615974 0.7881 -0.863357 -0.504149 89.946 167.058)" fill="#575757"/>
<rect width="15.5526" height="1.9765" transform="matrix(-0.615973 0.7881 -0.863356 -0.504149 143.037 170.764)" fill="#575757"/>
<rect width="15.5526" height="1.9765" transform="matrix(-0.615974 0.7881 -0.863357 -0.504149 110.366 168.483)" fill="#575757"/>
<rect width="15.5526" height="1.97651" transform="matrix(-0.615973 0.7881 -0.863357 -0.504149 126.701 169.624)" fill="#575757"/>
<rect width="15.5526" height="1.97651" transform="matrix(-0.615974 0.7881 -0.863357 -0.504148 94.03 167.343)" fill="#575757"/>
<rect width="15.5526" height="1.97651" transform="matrix(-0.615974 0.7881 -0.863357 -0.504148 134.869 170.194)" fill="#575757"/>
<rect width="15.5526" height="1.97651" transform="matrix(-0.615973 0.7881 -0.863357 -0.504149 102.198 167.913)" fill="#575757"/>
<rect width="15.5526" height="1.97651" transform="matrix(-0.615974 0.7881 -0.863357 -0.504148 118.533 169.054)" fill="#575757"/>
<rect width="15.5526" height="1.97651" transform="matrix(-0.615973 0.7881 -0.863357 -0.504149 85.8622 166.773)" fill="#575757"/>
<rect width="15.5554" height="1.97802" transform="matrix(-0.49992 -0.865769 -0.925406 0.37957 146.281 183.038)" fill="#898989"/>
<rect width="15.5554" height="1.97802" transform="matrix(-0.49992 -0.865769 -0.925406 0.37957 113.61 180.757)" fill="#898989"/>
<rect width="15.5554" height="1.97802" transform="matrix(-0.49992 -0.865769 -0.925406 0.37957 129.945 181.897)" fill="#898989"/>
<rect width="15.5554" height="1.97802" transform="matrix(-0.49992 -0.865769 -0.925406 0.37957 97.2741 179.617)" fill="#898989"/>
<rect width="15.5554" height="1.97802" transform="matrix(-0.49992 -0.865769 -0.925406 0.37957 138.113 182.467)" fill="#898989"/>
<rect width="15.5554" height="1.97802" transform="matrix(-0.49992 -0.865769 -0.925406 0.37957 105.442 180.187)" fill="#898989"/>
<rect width="15.5554" height="1.97802" transform="matrix(-0.49992 -0.865769 -0.925406 0.37957 121.778 181.327)" fill="#898989"/>
<rect width="15.5554" height="1.97802" transform="matrix(-0.49992 -0.865768 -0.925406 0.379569 89.1063 179.046)" fill="#898989"/>
<rect width="15.5554" height="1.97802" transform="matrix(-0.49992 -0.865768 -0.925406 0.379569 142.197 182.753)" fill="#898989"/>
<rect width="15.5554" height="1.97802" transform="matrix(-0.49992 -0.865768 -0.925406 0.379569 109.526 180.472)" fill="#898989"/>
<rect width="15.5554" height="1.97802" transform="matrix(-0.49992 -0.865769 -0.925406 0.37957 125.861 181.612)" fill="#898989"/>
<rect width="15.5554" height="1.97802" transform="matrix(-0.49992 -0.865769 -0.925406 0.37957 93.1901 179.331)" fill="#898989"/>
<rect width="15.5554" height="1.97802" transform="matrix(-0.49992 -0.865768 -0.925406 0.379569 134.029 182.182)" fill="#898989"/>
<rect width="15.5554" height="1.97802" transform="matrix(-0.49992 -0.865769 -0.925406 0.37957 101.358 179.902)" fill="#898989"/>
<rect width="15.5554" height="1.97802" transform="matrix(-0.49992 -0.865769 -0.925406 0.37957 117.694 181.042)" fill="#898989"/>
<rect width="15.5554" height="1.97802" transform="matrix(-0.49992 -0.865769 -0.925406 0.37957 85.0223 178.761)" fill="#898989"/>
</g>
<rect x="0.50914" width="149.426" height="149.174" rx="2" fill="#DF4A4A"/>
<path d="M37.8389 65.2392V48.6792C34.9109 43.8792 32.2469 39.1992 29.8469 34.6392C27.4949 30.0792 25.4309 25.4232 23.6549 20.6712H30.2789C31.6709 24.7032 33.2549 28.5672 35.0309 32.2632C36.8549 35.9112 38.7989 39.6792 40.8629 43.5672C43.0709 39.4872 45.0149 35.6232 46.6949 31.9752C48.4229 28.2792 49.9829 24.5112 51.3749 20.6712H57.8549C56.0309 25.3752 53.9429 29.9592 51.5909 34.4232C49.2389 38.8872 46.6229 43.5912 43.7429 48.5352V65.2392H37.8389ZM104.799 65.2392V48.6792C101.871 43.8792 99.2069 39.1992 96.8069 34.6392C94.4549 30.0792 92.3909 25.4232 90.6149 20.6712H97.2389C98.6309 24.7032 100.215 28.5672 101.991 32.2632C103.815 35.9112 105.759 39.6792 107.823 43.5672C110.031 39.4872 111.975 35.6232 113.655 31.9752C115.383 28.2792 116.943 24.5112 118.335 20.6712H124.815C122.991 25.3752 120.903 29.9592 118.551 34.4232C116.199 38.8872 113.583 43.5912 110.703 48.5352V65.2392H104.799ZM49.5749 104.279H55.4789V125.159C54.5669 125.495 53.1029 125.903 51.0869 126.383C49.0709 126.911 46.6949 127.175 43.9589 127.175C41.2709 127.175 38.8229 126.671 36.6149 125.663C34.4069 124.607 32.5109 123.095 30.9269 121.127C29.3909 119.159 28.1909 116.735 27.3269 113.855C26.4629 110.927 26.0309 107.615 26.0309 103.919C26.0309 100.175 26.5109 96.8632 27.4709 93.9832C28.4309 91.1032 29.7269 88.6792 31.3589 86.7112C33.0389 84.7432 34.9829 83.2552 37.1909 82.2472C39.3989 81.1912 41.7749 80.6632 44.3189 80.6632C45.9509 80.6632 47.3909 80.7832 48.6389 81.0232C49.8869 81.2632 50.9429 81.5512 51.8069 81.8872C52.7189 82.2232 53.4629 82.5832 54.0389 82.9672C54.6149 83.3032 55.0469 83.5672 55.3349 83.7592L53.3909 88.7272C52.2869 87.8632 50.9669 87.1672 49.4309 86.6392C47.9429 86.0632 46.3589 85.7752 44.6789 85.7752C42.8549 85.7752 41.1509 86.2072 39.5669 87.0712C38.0309 87.9352 36.7109 89.1592 35.6069 90.7432C34.5029 92.3272 33.6389 94.2472 33.0149 96.5032C32.3909 98.7112 32.0789 101.183 32.0789 103.919C32.0789 106.607 32.3429 109.055 32.8709 111.263C33.4469 113.471 34.2629 115.367 35.3189 116.951C36.3749 118.535 37.6709 119.783 39.2069 120.695C40.7909 121.559 42.5909 121.991 44.6069 121.991C45.9989 121.991 47.0789 121.895 47.8469 121.703C48.6149 121.511 49.1909 121.319 49.5749 121.127V104.279ZM106.527 122.063C109.551 122.063 111.855 121.487 113.439 120.335C115.023 119.183 115.815 117.455 115.815 115.151C115.815 113.759 115.527 112.583 114.951 111.623C114.375 110.615 113.607 109.751 112.647 109.031C111.687 108.263 110.607 107.615 109.407 107.087C108.207 106.511 106.983 105.983 105.735 105.503C104.295 104.927 102.903 104.279 101.559 103.559C100.263 102.839 99.0869 101.999 98.0309 101.039C97.0229 100.079 96.2069 98.9512 95.5829 97.6552C95.0069 96.3592 94.7189 94.8232 94.7189 93.0472C94.7189 89.1592 95.9429 86.1352 98.3909 83.9752C100.839 81.7672 104.247 80.6632 108.615 80.6632C109.815 80.6632 110.991 80.7592 112.143 80.9512C113.343 81.0952 114.447 81.2872 115.455 81.5272C116.463 81.7672 117.351 82.0552 118.119 82.3912C118.935 82.7272 119.583 83.0632 120.063 83.3992L118.191 88.3672C117.231 87.7912 115.911 87.2152 114.231 86.6392C112.551 86.0632 110.679 85.7752 108.615 85.7752C106.455 85.7752 104.583 86.3272 102.999 87.4312C101.415 88.4872 100.623 90.0952 100.623 92.2552C100.623 93.5032 100.839 94.5592 101.271 95.4232C101.751 96.2872 102.375 97.0552 103.143 97.7272C103.959 98.3512 104.895 98.9272 105.951 99.4552C107.007 99.9832 108.159 100.511 109.407 101.039C111.231 101.807 112.887 102.575 114.375 103.343C115.911 104.111 117.207 105.023 118.263 106.079C119.367 107.135 120.207 108.383 120.783 109.823C121.407 111.263 121.719 113.015 121.719 115.079C121.719 118.967 120.399 121.967 117.759 124.079C115.167 126.143 111.423 127.175 106.527 127.175C104.943 127.175 103.455 127.055 102.063 126.815C100.671 126.623 99.4229 126.359 98.3189 126.023C97.2629 125.687 96.3269 125.351 95.5109 125.015C94.6949 124.679 94.0709 124.367 93.6389 124.079L95.4389 119.183C96.3989 119.711 97.8149 120.335 99.6869 121.055C101.559 121.727 103.839 122.063 106.527 122.063Z" fill="white"/>
</svg>
