<svg width="150" height="150" viewBox="0 0 150 150" fill="none" xmlns="http://www.w3.org/2000/svg">
<path d="M31.6313 22.3479H23.9991L24.2587 23.0417C26.0155 27.7366 28.0571 32.3365 30.3834 36.8412L30.3853 36.8449C32.7346 41.3031 35.3393 45.8762 38.1994 50.5645V67.228H45.0431V50.4172C47.8559 45.5909 50.4134 40.996 52.7152 36.6326C55.0414 32.2228 57.1066 27.6944 58.9107 23.0476L59.1823 22.3479H51.688L51.5652 22.6864C50.1991 26.4503 48.6681 30.1437 46.9723 33.7664L46.9711 33.7691C45.4376 37.0948 43.6794 40.6053 41.6959 44.3009C39.8319 40.7796 38.0693 37.3598 36.408 34.0413C34.668 30.4242 33.1156 26.6418 31.7509 22.6938L31.6313 22.3479Z" fill="#353131"/>
<path d="M97.5968 22.3479H89.9645L90.2241 23.0417C91.9809 27.7366 94.0225 32.3365 96.3488 36.8411L96.3508 36.8449C98.7 41.3031 101.305 45.8763 104.165 50.5645V67.228H111.009V50.4172C113.821 45.5909 116.379 40.996 118.681 36.6326C121.007 32.2228 123.072 27.6944 124.876 23.0476L125.148 22.3479H117.654L117.531 22.6864C116.165 26.4503 114.634 30.1437 112.938 33.7664L112.937 33.7691C111.403 37.0948 109.645 40.6053 107.661 44.3009C105.797 40.7797 104.035 37.3598 102.374 34.0413C100.634 30.4242 99.081 26.6418 97.7163 22.6938L97.5968 22.3479Z" fill="#353131"/>
<path d="M45.0968 81.377C42.5188 81.377 40.1035 81.9117 37.8576 82.9837C35.6115 84.0086 33.6383 85.5195 31.9388 87.5078L31.9341 87.5135C30.2788 89.5071 28.974 91.9512 28.0118 94.8343C27.045 97.7311 26.5668 101.047 26.5668 104.773C26.5668 108.449 26.9969 111.759 27.8646 114.696L27.8653 114.698C28.7311 117.58 29.9394 120.026 31.499 122.022L31.5038 122.028C33.1109 124.022 35.0391 125.559 37.2858 126.632L37.2942 126.636C39.5432 127.661 42.0286 128.17 44.7422 128.17C47.4662 128.17 49.8507 127.908 51.8888 127.375C53.8749 126.903 55.3404 126.496 56.2685 126.155L56.6048 126.031V104.614H49.7611V121.371C49.4405 121.499 49.0063 121.634 48.448 121.774C47.7516 121.947 46.7365 122.042 45.3806 122.042C43.4736 122.042 41.7893 121.635 40.3147 120.834C38.8754 119.978 37.6564 118.807 36.6578 117.311C35.6556 115.81 34.8729 114 34.3172 111.875C33.8088 109.749 33.5523 107.383 33.5523 104.773C33.5523 102.12 33.8554 99.7357 34.455 97.6163L34.4558 97.6136C35.0582 95.4384 35.8874 93.6048 36.9355 92.1029C37.9824 90.6027 39.2257 89.4541 40.6639 88.6455C42.1473 87.8379 43.7405 87.4344 45.4515 87.4344C47.0466 87.4344 48.544 87.7072 49.9477 88.2499L49.9568 88.2535L49.9661 88.2567C51.4337 88.7605 52.6816 89.4201 53.7177 90.23L54.2609 90.6546L56.5786 84.7389L56.2339 84.5094C55.9394 84.3133 55.5075 84.0499 54.9441 83.7215C54.3358 83.3184 53.5692 82.9511 52.6553 82.6146C51.7678 82.2702 50.6971 81.9801 49.4496 81.7405C48.1807 81.4967 46.7285 81.377 45.0968 81.377Z" fill="#353131"/>
<path d="M108.438 81.377C104.051 81.377 100.557 82.4853 98.0236 84.7663C95.4818 87.0076 94.2345 90.1348 94.2345 94.076C94.2345 95.8778 94.527 97.4635 95.1301 98.8188L95.1333 98.826L95.1367 98.8331C95.7774 100.162 96.6175 101.323 97.6569 102.312L97.6657 102.32C98.7364 103.292 99.9275 104.142 101.237 104.868L101.244 104.872C102.586 105.59 103.974 106.235 105.41 106.809L105.417 106.812C106.633 107.279 107.826 107.793 108.996 108.354L109.004 108.357L109.011 108.361C110.156 108.864 111.181 109.479 112.089 110.205L112.096 110.21L112.102 110.215C112.994 110.882 113.702 111.68 114.234 112.609L114.239 112.618C114.749 113.466 115.017 114.526 115.017 115.825C115.017 117.961 114.291 119.491 112.888 120.51C111.452 121.554 109.307 122.113 106.381 122.113C103.775 122.113 101.593 121.787 99.8212 121.153C97.9868 120.448 96.6191 119.844 95.7049 119.342L95.1817 119.055L93.0622 124.813L93.3996 125.037C93.8661 125.348 94.5164 125.67 95.3331 126.006C96.1528 126.343 97.0886 126.678 98.1392 127.012L98.1454 127.014C99.2615 127.353 100.515 127.618 101.905 127.81C103.306 128.05 104.798 128.17 106.381 128.17C111.267 128.17 115.087 127.143 117.766 125.012L117.767 125.011C120.509 122.82 121.861 119.71 121.861 115.754C121.861 113.677 121.547 111.882 120.899 110.385C120.306 108.906 119.439 107.619 118.302 106.531C117.218 105.45 115.897 104.524 114.345 103.749C112.867 102.987 111.224 102.226 109.418 101.466C108.197 100.951 107.072 100.436 106.043 99.9215C105.033 99.4173 104.144 98.8707 103.373 98.283C102.668 97.6647 102.097 96.9619 101.657 96.174C101.28 95.4146 101.078 94.4622 101.078 93.2967C101.078 91.3163 101.794 89.9076 103.19 88.9778L103.199 88.9717C104.663 87.9524 106.402 87.4344 108.438 87.4344C110.424 87.4344 112.211 87.7111 113.804 88.2568C115.442 88.8178 116.705 89.3709 117.608 89.9117L118.135 90.2279L120.337 84.3906L120.01 84.1618C119.496 83.8024 118.822 83.4558 118.001 83.118C117.212 82.7737 116.309 82.4822 115.295 82.2411C114.284 82.0005 113.18 81.8089 111.986 81.6655C110.826 81.4731 109.644 81.377 108.438 81.377Z" fill="#353131"/>
<path fill-rule="evenodd" clip-rule="evenodd" d="M6.16438 0C2.75989 0 0 2.75989 0 6.16439V143.836C0 147.24 2.75989 150 6.16439 150H143.836C147.24 150 150 147.24 150 143.836V6.16438C150 2.75989 147.24 0 143.836 0H6.16438ZM143.836 6.16438H6.16438V143.836H143.836V6.16438Z" fill="#353131"/>
</svg>
