<svg width="150" height="150" viewBox="0 0 150 150" fill="none" xmlns="http://www.w3.org/2000/svg">
<rect x="2" y="2" width="146" height="146" rx="2" stroke="#EEEEEE" stroke-width="4"/>
<path d="M37.8389 63.366V46.806C34.9109 42.006 32.2469 37.326 29.8469 32.766C27.4949 28.206 25.4309 23.55 23.6549 18.798H30.2789C31.6709 22.83 33.2549 26.694 35.0309 30.39C36.8549 34.038 38.7989 37.806 40.8629 41.694C43.0709 37.614 45.0149 33.75 46.6949 30.102C48.4229 26.406 49.9829 22.638 51.3749 18.798H57.8549C56.0309 23.502 53.9429 28.086 51.5909 32.55C49.2389 37.014 46.6229 41.718 43.7429 46.662V63.366H37.8389ZM104.799 63.366V46.806C101.871 42.006 99.2069 37.326 96.8069 32.766C94.4549 28.206 92.3909 23.55 90.6149 18.798H97.2389C98.6309 22.83 100.215 26.694 101.991 30.39C103.815 34.038 105.759 37.806 107.823 41.694C110.031 37.614 111.975 33.75 113.655 30.102C115.383 26.406 116.943 22.638 118.335 18.798H124.815C122.991 23.502 120.903 28.086 118.551 32.55C116.199 37.014 113.583 41.718 110.703 46.662V63.366H104.799ZM49.5749 102.406H55.4789V123.286C54.5669 123.622 53.1029 124.03 51.0869 124.51C49.0709 125.038 46.6949 125.302 43.9589 125.302C41.2709 125.302 38.8229 124.798 36.6149 123.79C34.4069 122.734 32.5109 121.222 30.9269 119.254C29.3909 117.286 28.1909 114.862 27.3269 111.982C26.4629 109.054 26.0309 105.742 26.0309 102.046C26.0309 98.302 26.5109 94.99 27.4709 92.11C28.4309 89.23 29.7269 86.806 31.3589 84.838C33.0389 82.87 34.9829 81.382 37.1909 80.374C39.3989 79.318 41.7749 78.79 44.3189 78.79C45.9509 78.79 47.3909 78.91 48.6389 79.15C49.8869 79.39 50.9429 79.678 51.8069 80.014C52.7189 80.35 53.4629 80.71 54.0389 81.094C54.6149 81.43 55.0469 81.694 55.3349 81.886L53.3909 86.854C52.2869 85.99 50.9669 85.294 49.4309 84.766C47.9429 84.19 46.3589 83.902 44.6789 83.902C42.8549 83.902 41.1509 84.334 39.5669 85.198C38.0309 86.062 36.7109 87.286 35.6069 88.87C34.5029 90.454 33.6389 92.374 33.0149 94.63C32.3909 96.838 32.0789 99.31 32.0789 102.046C32.0789 104.734 32.3429 107.182 32.8709 109.39C33.4469 111.598 34.2629 113.494 35.3189 115.078C36.3749 116.662 37.6709 117.91 39.2069 118.822C40.7909 119.686 42.5909 120.118 44.6069 120.118C45.9989 120.118 47.0789 120.022 47.8469 119.83C48.6149 119.638 49.1909 119.446 49.5749 119.254V102.406ZM106.527 120.19C109.551 120.19 111.855 119.614 113.439 118.462C115.023 117.31 115.815 115.582 115.815 113.278C115.815 111.886 115.527 110.71 114.951 109.75C114.375 108.742 113.607 107.878 112.647 107.158C111.687 106.39 110.607 105.742 109.407 105.214C108.207 104.638 106.983 104.11 105.735 103.63C104.295 103.054 102.903 102.406 101.559 101.686C100.263 100.966 99.0869 100.126 98.0309 99.166C97.0229 98.206 96.2069 97.078 95.5829 95.782C95.0069 94.486 94.7189 92.95 94.7189 91.174C94.7189 87.286 95.9429 84.262 98.3909 82.102C100.839 79.894 104.247 78.79 108.615 78.79C109.815 78.79 110.991 78.886 112.143 79.078C113.343 79.222 114.447 79.414 115.455 79.654C116.463 79.894 117.351 80.182 118.119 80.518C118.935 80.854 119.583 81.19 120.063 81.526L118.191 86.494C117.231 85.918 115.911 85.342 114.231 84.766C112.551 84.19 110.679 83.902 108.615 83.902C106.455 83.902 104.583 84.454 102.999 85.558C101.415 86.614 100.623 88.222 100.623 90.382C100.623 91.63 100.839 92.686 101.271 93.55C101.751 94.414 102.375 95.182 103.143 95.854C103.959 96.478 104.895 97.054 105.951 97.582C107.007 98.11 108.159 98.638 109.407 99.166C111.231 99.934 112.887 100.702 114.375 101.47C115.911 102.238 117.207 103.15 118.263 104.206C119.367 105.262 120.207 106.51 120.783 107.95C121.407 109.39 121.719 111.142 121.719 113.206C121.719 117.094 120.399 120.094 117.759 122.206C115.167 124.27 111.423 125.302 106.527 125.302C104.943 125.302 103.455 125.182 102.063 124.942C100.671 124.75 99.4229 124.486 98.3189 124.15C97.2629 123.814 96.3269 123.478 95.5109 123.142C94.6949 122.806 94.0709 122.494 93.6389 122.206L95.4389 117.31C96.3989 117.838 97.8149 118.462 99.6869 119.182C101.559 119.854 103.839 120.19 106.527 120.19Z" fill="#EEEEEE"/>
</svg>
